<svg width="161" height="161" viewBox="0 0 161 161" fill="none" xmlns="http://www.w3.org/2000/svg">
<g opacity="0.14">
<path d="M160 160V160.5H160.5V160H160ZM160 0H159.5V160H160H160.5V0H160ZM160 160V159.5H0V160V160.5H160V160Z" fill="#353535"/>
<line x1="20.5" y1="2.18557e-08" x2="20.5" y2="160" stroke="#353535" stroke-miterlimit="1.83608"/>
<line x1="40.5" y1="2.18557e-08" x2="40.5" y2="160" stroke="#353535" stroke-miterlimit="1.83608"/>
<line x1="60.5" y1="2.18557e-08" x2="60.5" y2="160" stroke="#353535" stroke-miterlimit="1.83608"/>
<line x1="80.5" y1="2.18557e-08" x2="80.5" y2="160" stroke="#353535" stroke-miterlimit="1.83608"/>
<line x1="100.5" y1="2.18557e-08" x2="100.5" y2="160" stroke="#353535" stroke-miterlimit="1.83608"/>
<line x1="120.5" y1="2.18557e-08" x2="120.5" y2="160" stroke="#353535" stroke-miterlimit="1.83608"/>
<line x1="140.5" y1="2.18557e-08" x2="140.5" y2="160" stroke="#353535" stroke-miterlimit="1.83608"/>
<line x1="160" y1="20.5" x2="-4.37114e-08" y2="20.5" stroke="#353535" stroke-miterlimit="1.83608"/>
<line x1="160" y1="40.5" x2="-4.37114e-08" y2="40.5" stroke="#353535" stroke-miterlimit="1.83608"/>
<line x1="160" y1="60.5" x2="-4.37114e-08" y2="60.5" stroke="#353535" stroke-miterlimit="1.83608"/>
<line x1="160" y1="80.5" x2="-4.37114e-08" y2="80.5" stroke="#353535" stroke-miterlimit="1.83608"/>
<line x1="160" y1="100.5" x2="-4.37114e-08" y2="100.5" stroke="#353535" stroke-miterlimit="1.83608"/>
<line x1="160" y1="120.5" x2="-4.37114e-08" y2="120.5" stroke="#353535" stroke-miterlimit="1.83608"/>
<line x1="160" y1="140.5" x2="-4.37114e-08" y2="140.5" stroke="#353535" stroke-miterlimit="1.83608"/>
</g>
</svg>
